<mxfile host="app.diagrams.net" modified="2021-09-07T10:26:22.509Z" agent="5.0 (Macintosh; Intel Mac OS X 10_13_6) AppleWebKit/605.1.15 (KHTML, like Gecko) Version/13.1.2 Safari/605.1.15" etag="_iWCZGYxFH7AX0qkMHi2" version="15.1.0" type="github">
  <diagram id="7UnajbDv81arqUS3t6hi" name="Page-1">
    <mxGraphModel dx="1477" dy="931" grid="1" gridSize="10" guides="1" tooltips="1" connect="1" arrows="1" fold="1" page="1" pageScale="1" pageWidth="827" pageHeight="1169" math="0" shadow="0">
      <root>
        <mxCell id="0" />
        <mxCell id="1" parent="0" />
        <mxCell id="DiKjboJOvRGnQZIiGIST-9" style="edgeStyle=orthogonalEdgeStyle;rounded=0;orthogonalLoop=1;jettySize=auto;html=1;exitX=1;exitY=0.5;exitDx=0;exitDy=0;entryX=0;entryY=0.5;entryDx=0;entryDy=0;exitPerimeter=0;" parent="1" source="DiKjboJOvRGnQZIiGIST-17" target="DiKjboJOvRGnQZIiGIST-2" edge="1">
          <mxGeometry relative="1" as="geometry">
            <mxPoint x="130" y="270" as="sourcePoint" />
          </mxGeometry>
        </mxCell>
        <mxCell id="DiKjboJOvRGnQZIiGIST-10" style="edgeStyle=orthogonalEdgeStyle;rounded=0;orthogonalLoop=1;jettySize=auto;html=1;exitX=1;exitY=0.5;exitDx=0;exitDy=0;entryX=0;entryY=0.5;entryDx=0;entryDy=0;" parent="1" source="DiKjboJOvRGnQZIiGIST-2" target="DiKjboJOvRGnQZIiGIST-4" edge="1">
          <mxGeometry relative="1" as="geometry" />
        </mxCell>
        <mxCell id="DiKjboJOvRGnQZIiGIST-2" value="Preprocessing" style="rounded=1;whiteSpace=wrap;html=1;fillColor=#dae8fc;strokeColor=#6c8ebf;strokeWidth=2;" parent="1" vertex="1">
          <mxGeometry x="140" y="240" width="90" height="60" as="geometry" />
        </mxCell>
        <mxCell id="DiKjboJOvRGnQZIiGIST-11" style="edgeStyle=orthogonalEdgeStyle;rounded=0;orthogonalLoop=1;jettySize=auto;html=1;exitX=1;exitY=0.5;exitDx=0;exitDy=0;entryX=0;entryY=0.5;entryDx=0;entryDy=0;" parent="1" source="DiKjboJOvRGnQZIiGIST-4" target="DiKjboJOvRGnQZIiGIST-5" edge="1">
          <mxGeometry relative="1" as="geometry" />
        </mxCell>
        <mxCell id="DiKjboJOvRGnQZIiGIST-4" value="WFA" style="rounded=1;whiteSpace=wrap;html=1;strokeWidth=2;fillColor=#e1d5e7;strokeColor=#9673a6;" parent="1" vertex="1">
          <mxGeometry x="260" y="240" width="80" height="60" as="geometry" />
        </mxCell>
        <mxCell id="DiKjboJOvRGnQZIiGIST-12" style="edgeStyle=orthogonalEdgeStyle;rounded=0;orthogonalLoop=1;jettySize=auto;html=1;exitX=1;exitY=0.5;exitDx=0;exitDy=0;entryX=0;entryY=0.5;entryDx=0;entryDy=0;" parent="1" source="DiKjboJOvRGnQZIiGIST-5" target="DiKjboJOvRGnQZIiGIST-6" edge="1">
          <mxGeometry relative="1" as="geometry" />
        </mxCell>
        <mxCell id="DiKjboJOvRGnQZIiGIST-5" value="Determine Ignore Words" style="rounded=1;whiteSpace=wrap;html=1;strokeWidth=2;fillColor=#dae8fc;strokeColor=#6c8ebf;" parent="1" vertex="1">
          <mxGeometry x="380" y="240" width="80" height="60" as="geometry" />
        </mxCell>
        <mxCell id="DiKjboJOvRGnQZIiGIST-13" style="edgeStyle=orthogonalEdgeStyle;rounded=0;orthogonalLoop=1;jettySize=auto;html=1;exitX=1;exitY=0.5;exitDx=0;exitDy=0;entryX=0;entryY=0.5;entryDx=0;entryDy=0;" parent="1" source="DiKjboJOvRGnQZIiGIST-6" target="DiKjboJOvRGnQZIiGIST-8" edge="1">
          <mxGeometry relative="1" as="geometry" />
        </mxCell>
        <mxCell id="DiKjboJOvRGnQZIiGIST-6" value="Drop Ignore Words" style="rounded=1;whiteSpace=wrap;html=1;strokeWidth=2;fillColor=#dae8fc;strokeColor=#6c8ebf;" parent="1" vertex="1">
          <mxGeometry x="500" y="240" width="80" height="60" as="geometry" />
        </mxCell>
        <mxCell id="DiKjboJOvRGnQZIiGIST-31" style="edgeStyle=orthogonalEdgeStyle;rounded=0;orthogonalLoop=1;jettySize=auto;html=1;exitX=1;exitY=0.5;exitDx=0;exitDy=0;entryX=0;entryY=0.5;entryDx=0;entryDy=0;" parent="1" source="DiKjboJOvRGnQZIiGIST-8" target="DiKjboJOvRGnQZIiGIST-30" edge="1">
          <mxGeometry relative="1" as="geometry" />
        </mxCell>
        <mxCell id="DiKjboJOvRGnQZIiGIST-32" style="edgeStyle=orthogonalEdgeStyle;rounded=0;orthogonalLoop=1;jettySize=auto;html=1;exitX=1;exitY=0.5;exitDx=0;exitDy=0;entryX=0;entryY=0.5;entryDx=0;entryDy=0;" parent="1" source="DiKjboJOvRGnQZIiGIST-8" target="DiKjboJOvRGnQZIiGIST-28" edge="1">
          <mxGeometry relative="1" as="geometry" />
        </mxCell>
        <mxCell id="DiKjboJOvRGnQZIiGIST-8" value="&lt;span style=&quot;text-align: left&quot;&gt;SW Name Formatting&lt;/span&gt;" style="rounded=1;whiteSpace=wrap;html=1;strokeWidth=2;fillColor=#dae8fc;strokeColor=#6c8ebf;" parent="1" vertex="1">
          <mxGeometry x="620" y="240" width="80" height="60" as="geometry" />
        </mxCell>
        <mxCell id="DiKjboJOvRGnQZIiGIST-17" value="Request Text Data" style="shape=cylinder3;whiteSpace=wrap;html=1;boundedLbl=1;backgroundOutline=1;size=15;fillColor=#dae8fc;strokeColor=#6c8ebf;strokeWidth=3;" parent="1" vertex="1">
          <mxGeometry x="40" y="230" width="60" height="80" as="geometry" />
        </mxCell>
        <mxCell id="DiKjboJOvRGnQZIiGIST-22" value="" style="pointerEvents=1;shadow=0;dashed=0;html=1;strokeColor=none;labelPosition=center;verticalLabelPosition=bottom;verticalAlign=top;align=center;fillColor=#505050;shape=mxgraph.mscae.oms.log_search" parent="1" vertex="1">
          <mxGeometry x="277.5" y="210" width="45" height="40" as="geometry" />
        </mxCell>
        <mxCell id="DiKjboJOvRGnQZIiGIST-34" style="edgeStyle=orthogonalEdgeStyle;rounded=0;orthogonalLoop=1;jettySize=auto;html=1;exitX=1;exitY=0.5;exitDx=0;exitDy=0;entryX=0;entryY=0.5;entryDx=0;entryDy=0;" parent="1" source="DiKjboJOvRGnQZIiGIST-28" target="DiKjboJOvRGnQZIiGIST-29" edge="1">
          <mxGeometry relative="1" as="geometry" />
        </mxCell>
        <mxCell id="DiKjboJOvRGnQZIiGIST-28" value="Word Frequency Analysis" style="shape=image;html=1;verticalAlign=top;verticalLabelPosition=bottom;labelBackgroundColor=#ffffff;imageAspect=0;aspect=fixed;image=https://cdn1.iconfinder.com/data/icons/prettyoffice8/128/Bar-chart.png;strokeWidth=1;" parent="1" vertex="1">
          <mxGeometry x="770" y="300" width="68" height="68" as="geometry" />
        </mxCell>
        <mxCell id="DiKjboJOvRGnQZIiGIST-29" value="Decision Making" style="shape=image;html=1;verticalAlign=top;verticalLabelPosition=bottom;labelBackgroundColor=#ffffff;imageAspect=0;aspect=fixed;image=https://cdn0.iconfinder.com/data/icons/business-startup-10/50/16-128.png;" parent="1" vertex="1">
          <mxGeometry x="900" y="235" width="70" height="70" as="geometry" />
        </mxCell>
        <mxCell id="DiKjboJOvRGnQZIiGIST-33" style="edgeStyle=orthogonalEdgeStyle;rounded=0;orthogonalLoop=1;jettySize=auto;html=1;exitX=1;exitY=0.5;exitDx=0;exitDy=0;" parent="1" source="DiKjboJOvRGnQZIiGIST-30" target="DiKjboJOvRGnQZIiGIST-29" edge="1">
          <mxGeometry relative="1" as="geometry" />
        </mxCell>
        <mxCell id="DiKjboJOvRGnQZIiGIST-30" value="" style="shape=image;html=1;verticalAlign=top;verticalLabelPosition=bottom;labelBackgroundColor=#ffffff;imageAspect=0;aspect=fixed;image=https://cdn1.iconfinder.com/data/icons/prettyoffice8/128/Bar-chart.png" parent="1" vertex="1">
          <mxGeometry x="770" y="172" width="68" height="68" as="geometry" />
        </mxCell>
        <mxCell id="DiKjboJOvRGnQZIiGIST-35" value="&lt;span style=&quot;background-color: rgb(255 , 255 , 255)&quot;&gt;Pair Frequency Analysis&lt;/span&gt;" style="text;html=1;align=center;verticalAlign=middle;resizable=0;points=[];autosize=1;strokeColor=none;fillColor=none;" parent="1" vertex="1">
          <mxGeometry x="734" y="149" width="140" height="20" as="geometry" />
        </mxCell>
        <mxCell id="XNyeSnQuwPOEPBVChStQ-1" value="" style="html=1;aspect=fixed;strokeColor=none;shadow=0;align=center;verticalAlign=top;fillColor=#2D9C5E;shape=mxgraph.gcp2.check" parent="1" vertex="1">
          <mxGeometry x="950" y="220" width="37.5" height="30" as="geometry" />
        </mxCell>
        <mxCell id="XNyeSnQuwPOEPBVChStQ-2" style="edgeStyle=orthogonalEdgeStyle;rounded=0;orthogonalLoop=1;jettySize=auto;html=1;exitX=1;exitY=0.5;exitDx=0;exitDy=0;entryX=0;entryY=0.5;entryDx=0;entryDy=0;exitPerimeter=0;" parent="1" source="XNyeSnQuwPOEPBVChStQ-14" target="XNyeSnQuwPOEPBVChStQ-4" edge="1">
          <mxGeometry relative="1" as="geometry">
            <mxPoint x="130" y="541" as="sourcePoint" />
          </mxGeometry>
        </mxCell>
        <mxCell id="XNyeSnQuwPOEPBVChStQ-3" style="edgeStyle=orthogonalEdgeStyle;rounded=0;orthogonalLoop=1;jettySize=auto;html=1;exitX=1;exitY=0.5;exitDx=0;exitDy=0;entryX=0;entryY=0.5;entryDx=0;entryDy=0;" parent="1" source="XNyeSnQuwPOEPBVChStQ-4" target="XNyeSnQuwPOEPBVChStQ-6" edge="1">
          <mxGeometry relative="1" as="geometry" />
        </mxCell>
        <mxCell id="XNyeSnQuwPOEPBVChStQ-4" value="Preprocessing" style="rounded=1;whiteSpace=wrap;html=1;fillColor=#dae8fc;strokeWidth=4;shadow=1;glass=0;sketch=0;strokeColor=#CC0000;" parent="1" vertex="1">
          <mxGeometry x="140" y="511" width="90" height="60" as="geometry" />
        </mxCell>
        <mxCell id="XNyeSnQuwPOEPBVChStQ-5" style="edgeStyle=orthogonalEdgeStyle;rounded=0;orthogonalLoop=1;jettySize=auto;html=1;exitX=1;exitY=0.5;exitDx=0;exitDy=0;entryX=0;entryY=0.5;entryDx=0;entryDy=0;" parent="1" source="XNyeSnQuwPOEPBVChStQ-6" target="XNyeSnQuwPOEPBVChStQ-8" edge="1">
          <mxGeometry relative="1" as="geometry" />
        </mxCell>
        <mxCell id="XNyeSnQuwPOEPBVChStQ-6" value="WFA" style="rounded=1;whiteSpace=wrap;html=1;strokeWidth=2;fillColor=#e1d5e7;strokeColor=#9673a6;" parent="1" vertex="1">
          <mxGeometry x="260" y="511" width="80" height="60" as="geometry" />
        </mxCell>
        <mxCell id="XNyeSnQuwPOEPBVChStQ-7" style="edgeStyle=orthogonalEdgeStyle;rounded=0;orthogonalLoop=1;jettySize=auto;html=1;exitX=1;exitY=0.5;exitDx=0;exitDy=0;entryX=0;entryY=0.5;entryDx=0;entryDy=0;" parent="1" source="XNyeSnQuwPOEPBVChStQ-8" target="XNyeSnQuwPOEPBVChStQ-10" edge="1">
          <mxGeometry relative="1" as="geometry" />
        </mxCell>
        <mxCell id="XNyeSnQuwPOEPBVChStQ-8" value="Determine Ignore Words" style="rounded=1;whiteSpace=wrap;html=1;strokeWidth=2;fillColor=#dae8fc;strokeColor=#6c8ebf;" parent="1" vertex="1">
          <mxGeometry x="380" y="511" width="80" height="60" as="geometry" />
        </mxCell>
        <mxCell id="XNyeSnQuwPOEPBVChStQ-9" style="edgeStyle=orthogonalEdgeStyle;rounded=0;orthogonalLoop=1;jettySize=auto;html=1;exitX=1;exitY=0.5;exitDx=0;exitDy=0;entryX=0;entryY=0.5;entryDx=0;entryDy=0;" parent="1" source="XNyeSnQuwPOEPBVChStQ-10" target="XNyeSnQuwPOEPBVChStQ-13" edge="1">
          <mxGeometry relative="1" as="geometry" />
        </mxCell>
        <mxCell id="XNyeSnQuwPOEPBVChStQ-10" value="Drop Ignore Words" style="rounded=1;whiteSpace=wrap;html=1;strokeWidth=2;fillColor=#dae8fc;strokeColor=#6c8ebf;" parent="1" vertex="1">
          <mxGeometry x="500" y="511" width="80" height="60" as="geometry" />
        </mxCell>
        <mxCell id="XNyeSnQuwPOEPBVChStQ-11" style="edgeStyle=orthogonalEdgeStyle;rounded=0;orthogonalLoop=1;jettySize=auto;html=1;exitX=1;exitY=0.5;exitDx=0;exitDy=0;entryX=0;entryY=0.5;entryDx=0;entryDy=0;" parent="1" source="XNyeSnQuwPOEPBVChStQ-13" target="XNyeSnQuwPOEPBVChStQ-20" edge="1">
          <mxGeometry relative="1" as="geometry" />
        </mxCell>
        <mxCell id="XNyeSnQuwPOEPBVChStQ-12" style="edgeStyle=orthogonalEdgeStyle;rounded=0;orthogonalLoop=1;jettySize=auto;html=1;exitX=1;exitY=0.5;exitDx=0;exitDy=0;entryX=0;entryY=0.5;entryDx=0;entryDy=0;" parent="1" source="XNyeSnQuwPOEPBVChStQ-13" target="XNyeSnQuwPOEPBVChStQ-17" edge="1">
          <mxGeometry relative="1" as="geometry" />
        </mxCell>
        <mxCell id="XNyeSnQuwPOEPBVChStQ-13" value="&lt;span style=&quot;text-align: left&quot;&gt;SW Name Formatting&lt;/span&gt;" style="rounded=1;whiteSpace=wrap;html=1;strokeWidth=2;fillColor=#dae8fc;strokeColor=#6c8ebf;" parent="1" vertex="1">
          <mxGeometry x="620" y="511" width="80" height="60" as="geometry" />
        </mxCell>
        <mxCell id="XNyeSnQuwPOEPBVChStQ-14" value="Request Text Data" style="shape=cylinder3;whiteSpace=wrap;html=1;boundedLbl=1;backgroundOutline=1;size=15;fillColor=#bac8d3;strokeColor=#23445d;strokeWidth=1;sketch=1;" parent="1" vertex="1">
          <mxGeometry x="40" y="501" width="60" height="80" as="geometry" />
        </mxCell>
        <mxCell id="XNyeSnQuwPOEPBVChStQ-15" value="" style="pointerEvents=1;shadow=0;dashed=0;html=1;strokeColor=none;labelPosition=center;verticalLabelPosition=bottom;verticalAlign=top;align=center;fillColor=#505050;shape=mxgraph.mscae.oms.log_search" parent="1" vertex="1">
          <mxGeometry x="277.5" y="481" width="45" height="40" as="geometry" />
        </mxCell>
        <mxCell id="XNyeSnQuwPOEPBVChStQ-16" style="edgeStyle=orthogonalEdgeStyle;rounded=0;orthogonalLoop=1;jettySize=auto;html=1;exitX=1;exitY=0.5;exitDx=0;exitDy=0;entryX=0;entryY=0.5;entryDx=0;entryDy=0;" parent="1" source="XNyeSnQuwPOEPBVChStQ-17" target="XNyeSnQuwPOEPBVChStQ-18" edge="1">
          <mxGeometry relative="1" as="geometry" />
        </mxCell>
        <mxCell id="XNyeSnQuwPOEPBVChStQ-17" value="Word Frequency Analysis" style="shape=image;html=1;verticalAlign=top;verticalLabelPosition=bottom;labelBackgroundColor=#ffffff;imageAspect=0;aspect=fixed;image=https://cdn1.iconfinder.com/data/icons/prettyoffice8/128/Bar-chart.png;strokeWidth=1;" parent="1" vertex="1">
          <mxGeometry x="770" y="571" width="68" height="68" as="geometry" />
        </mxCell>
        <mxCell id="XNyeSnQuwPOEPBVChStQ-18" value="Decision Making" style="shape=image;html=1;verticalAlign=top;verticalLabelPosition=bottom;labelBackgroundColor=#ffffff;imageAspect=0;aspect=fixed;image=https://cdn0.iconfinder.com/data/icons/business-startup-10/50/16-128.png;" parent="1" vertex="1">
          <mxGeometry x="900" y="506" width="70" height="70" as="geometry" />
        </mxCell>
        <mxCell id="XNyeSnQuwPOEPBVChStQ-19" style="edgeStyle=orthogonalEdgeStyle;rounded=0;orthogonalLoop=1;jettySize=auto;html=1;exitX=1;exitY=0.5;exitDx=0;exitDy=0;" parent="1" source="XNyeSnQuwPOEPBVChStQ-20" target="XNyeSnQuwPOEPBVChStQ-18" edge="1">
          <mxGeometry relative="1" as="geometry" />
        </mxCell>
        <mxCell id="XNyeSnQuwPOEPBVChStQ-20" value="" style="shape=image;html=1;verticalAlign=top;verticalLabelPosition=bottom;labelBackgroundColor=#ffffff;imageAspect=0;aspect=fixed;image=https://cdn1.iconfinder.com/data/icons/prettyoffice8/128/Bar-chart.png" parent="1" vertex="1">
          <mxGeometry x="770" y="443" width="68" height="68" as="geometry" />
        </mxCell>
        <mxCell id="XNyeSnQuwPOEPBVChStQ-21" value="&lt;span style=&quot;background-color: rgb(255 , 255 , 255)&quot;&gt;Pair Frequency Analysis&lt;/span&gt;" style="text;html=1;align=center;verticalAlign=middle;resizable=0;points=[];autosize=1;strokeColor=none;fillColor=none;" parent="1" vertex="1">
          <mxGeometry x="734" y="420" width="140" height="20" as="geometry" />
        </mxCell>
        <mxCell id="XNyeSnQuwPOEPBVChStQ-22" value="" style="html=1;aspect=fixed;strokeColor=none;shadow=0;align=center;verticalAlign=top;fillColor=#2D9C5E;shape=mxgraph.gcp2.check" parent="1" vertex="1">
          <mxGeometry x="950" y="491" width="37.5" height="30" as="geometry" />
        </mxCell>
        <mxCell id="nlLrbs9CBdQGncTaBWrQ-1" style="edgeStyle=orthogonalEdgeStyle;rounded=0;orthogonalLoop=1;jettySize=auto;html=1;exitX=1;exitY=0.5;exitDx=0;exitDy=0;entryX=0;entryY=0.5;entryDx=0;entryDy=0;exitPerimeter=0;" edge="1" parent="1" source="nlLrbs9CBdQGncTaBWrQ-13" target="nlLrbs9CBdQGncTaBWrQ-3">
          <mxGeometry relative="1" as="geometry">
            <mxPoint x="130" y="831" as="sourcePoint" />
          </mxGeometry>
        </mxCell>
        <mxCell id="nlLrbs9CBdQGncTaBWrQ-2" style="edgeStyle=orthogonalEdgeStyle;rounded=0;orthogonalLoop=1;jettySize=auto;html=1;exitX=1;exitY=0.5;exitDx=0;exitDy=0;entryX=0;entryY=0.5;entryDx=0;entryDy=0;" edge="1" parent="1" source="nlLrbs9CBdQGncTaBWrQ-3" target="nlLrbs9CBdQGncTaBWrQ-5">
          <mxGeometry relative="1" as="geometry" />
        </mxCell>
        <mxCell id="nlLrbs9CBdQGncTaBWrQ-3" value="Preprocessing" style="rounded=1;whiteSpace=wrap;html=1;fillColor=#bac8d3;strokeColor=#23445d;strokeWidth=2;sketch=1;" vertex="1" parent="1">
          <mxGeometry x="140" y="801" width="90" height="60" as="geometry" />
        </mxCell>
        <mxCell id="nlLrbs9CBdQGncTaBWrQ-4" style="edgeStyle=orthogonalEdgeStyle;rounded=0;orthogonalLoop=1;jettySize=auto;html=1;exitX=1;exitY=0.5;exitDx=0;exitDy=0;entryX=0;entryY=0.5;entryDx=0;entryDy=0;" edge="1" parent="1" source="nlLrbs9CBdQGncTaBWrQ-5" target="nlLrbs9CBdQGncTaBWrQ-7">
          <mxGeometry relative="1" as="geometry" />
        </mxCell>
        <mxCell id="nlLrbs9CBdQGncTaBWrQ-5" value="WFA" style="rounded=1;whiteSpace=wrap;html=1;strokeWidth=2;fillColor=#e1d5e7;strokeColor=#9673a6;sketch=1;" vertex="1" parent="1">
          <mxGeometry x="260" y="801" width="80" height="60" as="geometry" />
        </mxCell>
        <mxCell id="nlLrbs9CBdQGncTaBWrQ-6" style="edgeStyle=orthogonalEdgeStyle;rounded=0;orthogonalLoop=1;jettySize=auto;html=1;exitX=1;exitY=0.5;exitDx=0;exitDy=0;entryX=0;entryY=0.5;entryDx=0;entryDy=0;" edge="1" parent="1" source="nlLrbs9CBdQGncTaBWrQ-7" target="nlLrbs9CBdQGncTaBWrQ-9">
          <mxGeometry relative="1" as="geometry" />
        </mxCell>
        <mxCell id="nlLrbs9CBdQGncTaBWrQ-7" value="Determine Ignore Words" style="rounded=1;whiteSpace=wrap;html=1;strokeWidth=4;fillColor=#dae8fc;strokeColor=#CC0000;" vertex="1" parent="1">
          <mxGeometry x="380" y="801" width="80" height="60" as="geometry" />
        </mxCell>
        <mxCell id="nlLrbs9CBdQGncTaBWrQ-8" style="edgeStyle=orthogonalEdgeStyle;rounded=0;orthogonalLoop=1;jettySize=auto;html=1;exitX=1;exitY=0.5;exitDx=0;exitDy=0;entryX=0;entryY=0.5;entryDx=0;entryDy=0;" edge="1" parent="1" source="nlLrbs9CBdQGncTaBWrQ-9" target="nlLrbs9CBdQGncTaBWrQ-12">
          <mxGeometry relative="1" as="geometry" />
        </mxCell>
        <mxCell id="nlLrbs9CBdQGncTaBWrQ-9" value="Drop Ignore Words" style="rounded=1;whiteSpace=wrap;html=1;strokeWidth=4;fillColor=#dae8fc;strokeColor=#CC0000;" vertex="1" parent="1">
          <mxGeometry x="500" y="801" width="80" height="60" as="geometry" />
        </mxCell>
        <mxCell id="nlLrbs9CBdQGncTaBWrQ-10" style="edgeStyle=orthogonalEdgeStyle;rounded=0;orthogonalLoop=1;jettySize=auto;html=1;exitX=1;exitY=0.5;exitDx=0;exitDy=0;entryX=0;entryY=0.5;entryDx=0;entryDy=0;" edge="1" parent="1" source="nlLrbs9CBdQGncTaBWrQ-12" target="nlLrbs9CBdQGncTaBWrQ-19">
          <mxGeometry relative="1" as="geometry" />
        </mxCell>
        <mxCell id="nlLrbs9CBdQGncTaBWrQ-11" style="edgeStyle=orthogonalEdgeStyle;rounded=0;orthogonalLoop=1;jettySize=auto;html=1;exitX=1;exitY=0.5;exitDx=0;exitDy=0;entryX=0;entryY=0.5;entryDx=0;entryDy=0;" edge="1" parent="1" source="nlLrbs9CBdQGncTaBWrQ-12" target="nlLrbs9CBdQGncTaBWrQ-16">
          <mxGeometry relative="1" as="geometry" />
        </mxCell>
        <mxCell id="nlLrbs9CBdQGncTaBWrQ-12" value="&lt;span style=&quot;text-align: left&quot;&gt;SW Name Formatting&lt;/span&gt;" style="rounded=1;whiteSpace=wrap;html=1;strokeWidth=2;fillColor=#dae8fc;strokeColor=#6c8ebf;" vertex="1" parent="1">
          <mxGeometry x="620" y="801" width="80" height="60" as="geometry" />
        </mxCell>
        <mxCell id="nlLrbs9CBdQGncTaBWrQ-13" value="Request Text Data" style="shape=cylinder3;whiteSpace=wrap;html=1;boundedLbl=1;backgroundOutline=1;size=15;fillColor=#bac8d3;strokeColor=#23445d;strokeWidth=1;sketch=1;" vertex="1" parent="1">
          <mxGeometry x="40" y="791" width="60" height="80" as="geometry" />
        </mxCell>
        <mxCell id="nlLrbs9CBdQGncTaBWrQ-14" value="" style="pointerEvents=1;shadow=0;dashed=0;html=1;strokeColor=none;labelPosition=center;verticalLabelPosition=bottom;verticalAlign=top;align=center;fillColor=#505050;shape=mxgraph.mscae.oms.log_search" vertex="1" parent="1">
          <mxGeometry x="277.5" y="771" width="45" height="40" as="geometry" />
        </mxCell>
        <mxCell id="nlLrbs9CBdQGncTaBWrQ-15" style="edgeStyle=orthogonalEdgeStyle;rounded=0;orthogonalLoop=1;jettySize=auto;html=1;exitX=1;exitY=0.5;exitDx=0;exitDy=0;entryX=0;entryY=0.5;entryDx=0;entryDy=0;" edge="1" parent="1" source="nlLrbs9CBdQGncTaBWrQ-16" target="nlLrbs9CBdQGncTaBWrQ-17">
          <mxGeometry relative="1" as="geometry" />
        </mxCell>
        <mxCell id="nlLrbs9CBdQGncTaBWrQ-16" value="Word Frequency Analysis" style="shape=image;html=1;verticalAlign=top;verticalLabelPosition=bottom;labelBackgroundColor=#ffffff;imageAspect=0;aspect=fixed;image=https://cdn1.iconfinder.com/data/icons/prettyoffice8/128/Bar-chart.png;strokeWidth=1;" vertex="1" parent="1">
          <mxGeometry x="770" y="861" width="68" height="68" as="geometry" />
        </mxCell>
        <mxCell id="nlLrbs9CBdQGncTaBWrQ-17" value="Decision Making" style="shape=image;html=1;verticalAlign=top;verticalLabelPosition=bottom;labelBackgroundColor=#ffffff;imageAspect=0;aspect=fixed;image=https://cdn0.iconfinder.com/data/icons/business-startup-10/50/16-128.png;" vertex="1" parent="1">
          <mxGeometry x="900" y="796" width="70" height="70" as="geometry" />
        </mxCell>
        <mxCell id="nlLrbs9CBdQGncTaBWrQ-18" style="edgeStyle=orthogonalEdgeStyle;rounded=0;orthogonalLoop=1;jettySize=auto;html=1;exitX=1;exitY=0.5;exitDx=0;exitDy=0;" edge="1" parent="1" source="nlLrbs9CBdQGncTaBWrQ-19" target="nlLrbs9CBdQGncTaBWrQ-17">
          <mxGeometry relative="1" as="geometry" />
        </mxCell>
        <mxCell id="nlLrbs9CBdQGncTaBWrQ-19" value="" style="shape=image;html=1;verticalAlign=top;verticalLabelPosition=bottom;labelBackgroundColor=#ffffff;imageAspect=0;aspect=fixed;image=https://cdn1.iconfinder.com/data/icons/prettyoffice8/128/Bar-chart.png" vertex="1" parent="1">
          <mxGeometry x="770" y="733" width="68" height="68" as="geometry" />
        </mxCell>
        <mxCell id="nlLrbs9CBdQGncTaBWrQ-20" value="&lt;span style=&quot;background-color: rgb(255 , 255 , 255)&quot;&gt;Pair Frequency Analysis&lt;/span&gt;" style="text;html=1;align=center;verticalAlign=middle;resizable=0;points=[];autosize=1;strokeColor=none;fillColor=none;" vertex="1" parent="1">
          <mxGeometry x="734" y="710" width="140" height="20" as="geometry" />
        </mxCell>
        <mxCell id="nlLrbs9CBdQGncTaBWrQ-21" value="" style="html=1;aspect=fixed;strokeColor=none;shadow=0;align=center;verticalAlign=top;fillColor=#2D9C5E;shape=mxgraph.gcp2.check" vertex="1" parent="1">
          <mxGeometry x="950" y="781" width="37.5" height="30" as="geometry" />
        </mxCell>
      </root>
    </mxGraphModel>
  </diagram>
</mxfile>
